{"accessors":[{"bufferView":0,"byteOffset":0,"componentType":5126,"count":10,"max":[0.008750000000499967,-0.00376776695268385,-0.0030073593125],"min":[0.008249999999888687,-0.005,-0.0051286796561405765],"type":"VEC3"},{"bufferView":0,"byteOffset":120,"componentType":5126,"count":4,"max":[0.008750000000499967,-0.004499999999750017,0.00775],"min":[0.008249999997499998,-0.005,-0.0030073593127499976],"type":"VEC3"},{"bufferView":0,"byteOffset":168,"componentType":5126,"count":4,"max":[0.00825,-0.005,0.00775],"min":[-0.00825,-0.005,-0.003007359312999995],"type":"VEC3"},{"bufferView":0,"byteOffset":216,"componentType":5126,"count":4,"max":[-0.00825,-0.004499999999750024,0.00775],"min":[-0.008750000000249983,-0.005,-0.003007359312999995],"type":"VEC3"},{"bufferView":0,"byteOffset":264,"componentType":5126,"count":10,"max":[-0.008249999998597445,-0.0037677669527957534,-0.003007359312999995],"min":[-0.008750000001288854,-0.005,-0.005128679656376903],"type":"VEC3"},{"bufferView":0,"byteOffset":384,"componentType":5126,"count":10,"max":[0.00825,-0.004121320343838271,-0.0030073593127499976],"min":[-0.00825,-0.005,-0.005128679656376903],"type":"VEC3"},{"bufferView":0,"byteOffset":504,"componentType":5126,"count":4,"max":[0.008750000000032884,0.0,-0.004775126265683838],"min":[0.008249999995526835,-0.004121320343838271,-0.00925000000395221],"type":"VEC3"},{"bufferView":0,"byteOffset":552,"componentType":5126,"count":4,"max":[-0.00824999999509113,3.2146374451258456e-13,-0.0047751262647957446],"min":[-0.008750000001288854,-0.004121320344376905,-0.009250000005464387],"type":"VEC3"},{"bufferView":0,"byteOffset":600,"componentType":5126,"count":8,"max":[0.008750000000499967,0.0,0.00775],"min":[0.008749999999891457,-0.0045000000000000005,-0.008542893218558362],"type":"VEC3"},{"bufferView":0,"byteOffset":696,"componentType":5126,"count":6,"max":[0.00875,0.0,0.00775],"min":[-0.00875,-0.005,0.007749999996500009],"type":"VEC3"},{"bufferView":0,"byteOffset":768,"componentType":5126,"count":8,"max":[-0.00875,8.753175961828675e-14,0.00775],"min":[-0.008750000001288854,-0.0045000000000000005,-0.008542893217999108],"type":"VEC3"},{"bufferView":0,"byteOffset":864,"componentType":5126,"count":4,"max":[0.008249999999888687,3.2146374451258456e-13,-0.0051286796561405765],"min":[-0.008249999998597445,-0.004121320344376905,-0.009250000005464387],"type":"VEC3"},{"bufferView":0,"byteOffset":912,"componentType":5126,"count":28,"max":[0.01,3.2146374451258456e-13,0.01624999999858801],"min":[-0.01,-1.8260237766298816e-13,-0.01675],"type":"VEC3"},{"bufferView":0,"byteOffset":1248,"componentType":5126,"count":4,"max":[0.0105,0.0005,0.016750000000677005],"min":[0.01,-1.2499867807491682e-13,-0.01175],"type":"VEC3"},{"bufferView":0,"byteOffset":1296,"componentType":5126,"count":20,"max":[0.0105,0.0005,-0.01175],"min":[0.004999999998967979,0.0,-0.01725],"type":"VEC3"},{"bufferView":0,"byteOffset":1536,"componentType":5126,"count":4,"max":[0.004999999999500005,0.0005,-0.01675],"min":[-0.005000000001096055,0.0,-0.01725],"type":"VEC3"},{"bufferView":0,"byteOffset":1584,"componentType":5126,"count":20,"max":[-0.005000000000512756,0.0005,-0.011749999999435972],"min":[-0.0105,0.0,-0.01725],"type":"VEC3"},{"bufferView":0,"byteOffset":1824,"componentType":5126,"count":4,"max":[-0.01,0.0005,0.016750000001551996],"min":[-0.0105,-1.2499867807491682e-13,-0.01175],"type":"VEC3"},{"bufferView":0,"byteOffset":1872,"componentType":5126,"count":4,"max":[0.0105,0.0005,0.016750000001551996],"min":[-0.0105,-1.2499867807491682e-13,0.01624999999846301],"type":"VEC3"},{"bufferView":0,"byteOffset":1920,"componentType":5126,"count":4,"max":[0.010500000000000015,0.0055,0.016750000000677005],"min":[0.0105,0.0005,-0.01175],"type":"VEC3"},{"bufferView":0,"byteOffset":1968,"componentType":5126,"count":20,"max":[0.010500000000000015,0.0055,-0.01175],"min":[0.004999999998967979,0.0005,-0.01725],"type":"VEC3"},{"bufferView":0,"byteOffset":2208,"componentType":5126,"count":4,"max":[0.00499999999950002,0.0055,-0.01725],"min":[-0.005000000001096055,0.0005,-0.01725],"type":"VEC3"},{"bufferView":0,"byteOffset":2256,"componentType":5126,"count":20,"max":[-0.005000000000564015,0.0055,-0.011749999999435972],"min":[-0.0105,0.0005,-0.01725],"type":"VEC3"},{"bufferView":0,"byteOffset":2496,"componentType":5126,"count":4,"max":[-0.010499999999999987,0.005499999999999996,0.016750000001551996],"min":[-0.0105,0.0005,-0.01175],"type":"VEC3"},{"bufferView":0,"byteOffset":2544,"componentType":5126,"count":4,"max":[-0.00999999999666666,0.007,0.01675],"min":[-0.009999999999999986,0.005499999999499999,-0.01175],"type":"VEC3"},{"bufferView":0,"byteOffset":2592,"componentType":5126,"count":8,"max":[0.010500000000000015,0.007,0.016750000001551996],"min":[-0.0105,0.0005,0.01675],"type":"VEC3"},{"bufferView":0,"byteOffset":2688,"componentType":5126,"count":4,"max":[0.010000000000000014,0.006999999999999997,0.01675],"min":[0.009999999997333347,0.005499999999999996,-0.011749999999487244],"type":"VEC3"},{"bufferView":0,"byteOffset":2736,"componentType":5126,"count":20,"max":[0.010000000000000014,0.006999999999999997,-0.011749999999487244],"min":[0.005000000000500009,0.005499999999999996,-0.016750000005999993],"type":"VEC3"},{"bufferView":0,"byteOffset":2976,"componentType":5126,"count":4,"max":[0.005000000000500009,0.007,-0.01675],"min":[-0.004999999999999986,0.005499999999999996,-0.016750000005999993],"type":"VEC3"},{"bufferView":0,"byteOffset":3024,"componentType":5126,"count":44,"max":[0.010500000000000015,0.0055,0.01675],"min":[-0.010499999999999987,0.005499999999499999,-0.01725],"type":"VEC3"},{"bufferView":0,"byteOffset":3552,"componentType":5126,"count":22,"max":[0.010000000000000014,0.007,0.01675],"min":[-0.009999999999999986,0.006999999999999997,-0.01675],"type":"VEC3"},{"bufferView":0,"byteOffset":3816,"componentType":5126,"count":20,"max":[-0.004999999999999986,0.007,-0.01175],"min":[-0.009999999999999986,0.0055,-0.016750000005999993],"type":"VEC3"},{"bufferView":1,"byteOffset":0,"componentType":5126,"count":10,"type":"VEC3"},{"bufferView":1,"byteOffset":120,"componentType":5126,"count":4,"type":"VEC3"},{"bufferView":1,"byteOffset":168,"componentType":5126,"count":4,"type":"VEC3"},{"bufferView":1,"byteOffset":216,"componentType":5126,"count":4,"type":"VEC3"},{"bufferView":1,"byteOffset":264,"componentType":5126,"count":10,"type":"VEC3"},{"bufferView":1,"byteOffset":384,"componentType":5126,"count":10,"type":"VEC3"},{"bufferView":1,"byteOffset":504,"componentType":5126,"count":4,"type":"VEC3"},{"bufferView":1,"byteOffset":552,"componentType":5126,"count":4,"type":"VEC3"},{"bufferView":1,"byteOffset":600,"componentType":5126,"count":8,"type":"VEC3"},{"bufferView":1,"byteOffset":696,"componentType":5126,"count":6,"type":"VEC3"},{"bufferView":1,"byteOffset":768,"componentType":5126,"count":8,"type":"VEC3"},{"bufferView":1,"byteOffset":864,"componentType":5126,"count":4,"type":"VEC3"},{"bufferView":1,"byteOffset":912,"componentType":5126,"count":28,"type":"VEC3"},{"bufferView":1,"byteOffset":1248,"componentType":5126,"count":4,"type":"VEC3"},{"bufferView":1,"byteOffset":1296,"componentType":5126,"count":20,"type":"VEC3"},{"bufferView":1,"byteOffset":1536,"componentType":5126,"count":4,"type":"VEC3"},{"bufferView":1,"byteOffset":1584,"componentType":5126,"count":20,"type":"VEC3"},{"bufferView":1,"byteOffset":1824,"componentType":5126,"count":4,"type":"VEC3"},{"bufferView":1,"byteOffset":1872,"componentType":5126,"count":4,"type":"VEC3"},{"bufferView":1,"byteOffset":1920,"componentType":5126,"count":4,"type":"VEC3"},{"bufferView":1,"byteOffset":1968,"componentType":5126,"count":20,"type":"VEC3"},{"bufferView":1,"byteOffset":2208,"componentType":5126,"count":4,"type":"VEC3"},{"bufferView":1,"byteOffset":2256,"componentType":5126,"count":20,"type":"VEC3"},{"bufferView":1,"byteOffset":2496,"componentType":5126,"count":4,"type":"VEC3"},{"bufferView":1,"byteOffset":2544,"componentType":5126,"count":4,"type":"VEC3"},{"bufferView":1,"byteOffset":2592,"componentType":5126,"count":8,"type":"VEC3"},{"bufferView":1,"byteOffset":2688,"componentType":5126,"count":4,"type":"VEC3"},{"bufferView":1,"byteOffset":2736,"componentType":5126,"count":20,"type":"VEC3"},{"bufferView":1,"byteOffset":2976,"componentType":5126,"count":4,"type":"VEC3"},{"bufferView":1,"byteOffset":3024,"componentType":5126,"count":44,"type":"VEC3"},{"bufferView":1,"byteOffset":3552,"componentType":5126,"count":22,"type":"VEC3"},{"bufferView":1,"byteOffset":3816,"componentType":5126,"count":20,"type":"VEC3"},{"bufferView":2,"byteOffset":0,"componentType":5123,"count":24,"type":"SCALAR"},{"bufferView":2,"byteOffset":48,"componentType":5123,"count":6,"type":"SCALAR"},{"bufferView":2,"byteOffset":60,"componentType":5123,"count":6,"type":"SCALAR"},{"bufferView":2,"byteOffset":72,"componentType":5123,"count":6,"type":"SCALAR"},{"bufferView":2,"byteOffset":84,"componentType":5123,"count":24,"type":"SCALAR"},{"bufferView":2,"byteOffset":132,"componentType":5123,"count":24,"type":"SCALAR"},{"bufferView":2,"byteOffset":180,"componentType":5123,"count":6,"type":"SCALAR"},{"bufferView":2,"byteOffset":192,"componentType":5123,"count":6,"type":"SCALAR"},{"bufferView":2,"byteOffset":204,"componentType":5123,"count":18,"type":"SCALAR"},{"bufferView":2,"byteOffset":240,"componentType":5123,"count":12,"type":"SCALAR"},{"bufferView":2,"byteOffset":264,"componentType":5123,"count":18,"type":"SCALAR"},{"bufferView":2,"byteOffset":300,"componentType":5123,"count":6,"type":"SCALAR"},{"bufferView":2,"byteOffset":312,"componentType":5123,"count":84,"type":"SCALAR"},{"bufferView":2,"byteOffset":480,"componentType":5123,"count":6,"type":"SCALAR"},{"bufferView":2,"byteOffset":492,"componentType":5123,"count":54,"type":"SCALAR"},{"bufferView":2,"byteOffset":600,"componentType":5123,"count":6,"type":"SCALAR"},{"bufferView":2,"byteOffset":612,"componentType":5123,"count":54,"type":"SCALAR"},{"bufferView":2,"byteOffset":720,"componentType":5123,"count":6,"type":"SCALAR"},{"bufferView":2,"byteOffset":732,"componentType":5123,"count":6,"type":"SCALAR"},{"bufferView":2,"byteOffset":744,"componentType":5123,"count":6,"type":"SCALAR"},{"bufferView":2,"byteOffset":756,"componentType":5123,"count":54,"type":"SCALAR"},{"bufferView":2,"byteOffset":864,"componentType":5123,"count":6,"type":"SCALAR"},{"bufferView":2,"byteOffset":876,"componentType":5123,"count":54,"type":"SCALAR"},{"bufferView":2,"byteOffset":984,"componentType":5123,"count":6,"type":"SCALAR"},{"bufferView":2,"byteOffset":996,"componentType":5123,"count":6,"type":"SCALAR"},{"bufferView":2,"byteOffset":1008,"componentType":5123,"count":18,"type":"SCALAR"},{"bufferView":2,"byteOffset":1044,"componentType":5123,"count":6,"type":"SCALAR"},{"bufferView":2,"byteOffset":1056,"componentType":5123,"count":54,"type":"SCALAR"},{"bufferView":2,"byteOffset":1164,"componentType":5123,"count":6,"type":"SCALAR"},{"bufferView":2,"byteOffset":1176,"componentType":5123,"count":126,"type":"SCALAR"},{"bufferView":2,"byteOffset":1428,"componentType":5123,"count":60,"type":"SCALAR"},{"bufferView":2,"byteOffset":1548,"componentType":5123,"count":54,"type":"SCALAR"}],"asset":{"generator":"Open CASCADE Technology 7.8 [dev.opencascade.org]","version":"2.0"},"bufferViews":[{"buffer":0,"byteLength":4056,"byteOffset":0,"byteStride":12,"target":34962},{"buffer":0,"byteLength":4056,"byteOffset":4056,"byteStride":12,"target":34962},{"buffer":0,"byteLength":1656,"byteOffset":8112,"target":34963}],"buffers":[{"byteLength":9768,"uri":"AG-160-95-3a.bin"}],"materials":[{"name":"mat_0","pbrMetallicRoughness":{"baseColorFactor":[1.0,1.0,1.0,1.0]},"doubleSided":true},{"name":"mat_1","pbrMetallicRoughness":{"baseColorFactor":[0.012286488898098469,0.012286488898098469,0.012286488898098469,1.0]},"doubleSided":true},{"name":"mat_2","pbrMetallicRoughness":{"baseColorFactor":[0.019382363185286522,0.019382363185286522,0.019382363185286522,1.0]},"doubleSided":true}],"meshes":[{"name":"FINGER_FINGERTIP_v2_02_01_03_29.STEP001","primitives":[{"attributes":{"NORMAL":32,"POSITION":0},"indices":64,"material":0,"mode":4},{"attributes":{"NORMAL":33,"POSITION":1},"indices":65,"material":0,"mode":4},{"attributes":{"NORMAL":34,"POSITION":2},"indices":66,"material":0,"mode":4},{"attributes":{"NORMAL":35,"POSITION":3},"indices":67,"material":0,"mode":4},{"attributes":{"NORMAL":36,"POSITION":4},"indices":68,"material":0,"mode":4},{"attributes":{"NORMAL":37,"POSITION":5},"indices":69,"material":0,"mode":4},{"attributes":{"NORMAL":38,"POSITION":6},"indices":70,"material":0,"mode":4},{"attributes":{"NORMAL":39,"POSITION":7},"indices":71,"material":0,"mode":4},{"attributes":{"NORMAL":40,"POSITION":8},"indices":72,"material":0,"mode":4},{"attributes":{"NORMAL":41,"POSITION":9},"indices":73,"material":0,"mode":4},{"attributes":{"NORMAL":42,"POSITION":10},"indices":74,"material":0,"mode":4},{"attributes":{"NORMAL":43,"POSITION":11},"indices":75,"material":0,"mode":4},{"attributes":{"NORMAL":44,"POSITION":12},"indices":76,"material":0,"mode":4},{"attributes":{"NORMAL":45,"POSITION":13},"indices":77,"material":0,"mode":4},{"attributes":{"NORMAL":46,"POSITION":14},"indices":78,"material":0,"mode":4},{"attributes":{"NORMAL":47,"POSITION":15},"indices":79,"material":0,"mode":4},{"attributes":{"NORMAL":48,"POSITION":16},"indices":80,"material":0,"mode":4},{"attributes":{"NORMAL":49,"POSITION":17},"indices":81,"material":0,"mode":4},{"attributes":{"NORMAL":50,"POSITION":18},"indices":82,"material":0,"mode":4},{"attributes":{"NORMAL":51,"POSITION":19},"indices":83,"material":0,"mode":4},{"attributes":{"NORMAL":52,"POSITION":20},"indices":84,"material":0,"mode":4},{"attributes":{"NORMAL":53,"POSITION":21},"indices":85,"material":0,"mode":4},{"attributes":{"NORMAL":54,"POSITION":22},"indices":86,"material":0,"mode":4},{"attributes":{"NORMAL":55,"POSITION":23},"indices":87,"material":0,"mode":4},{"attributes":{"NORMAL":56,"POSITION":24},"indices":88,"material":1,"mode":4},{"attributes":{"NORMAL":57,"POSITION":25},"indices":89,"material":0,"mode":4},{"attributes":{"NORMAL":58,"POSITION":26},"indices":90,"material":1,"mode":4},{"attributes":{"NORMAL":59,"POSITION":27},"indices":91,"material":1,"mode":4},{"attributes":{"NORMAL":60,"POSITION":28},"indices":92,"material":1,"mode":4},{"attributes":{"NORMAL":61,"POSITION":29},"indices":93,"material":0,"mode":4},{"attributes":{"NORMAL":62,"POSITION":30},"indices":94,"material":2,"mode":4},{"attributes":{"NORMAL":63,"POSITION":31},"indices":95,"material":1,"mode":4}]}],"nodes":[{"mesh":0,"name":"FINGER_FINGERTIP_v2_02_01_03_29.STEP001"}],"scene":0,"scenes":[{"nodes":[0]}]}